{
	"asset":{
		"generator":"Khronos glTF Blender I/O v4.3.47",
		"version":"2.0"
	},
	"scene":0,
	"scenes":[
		{
			"name":"Scene",
			"nodes":[
				0
			]
		}
	],
	"nodes":[
		{
			"mesh":0,
			"name":"Cube.001",
			"translation":[
				4.79487419128418,
				0,
				0
			]
		}
	],
	"materials":[
		{
			"doubleSided":true,
			"name":"Material.001",
			"pbrMetallicRoughness":{
				"baseColorFactor":[
					0.16439014673233032,
					0.14296866953372955,
					0.1280461549758911,
					1
				],
				"metallicFactor":0,
				"roughnessFactor":0.5
			}
		}
	],
	"meshes":[
		{
			"name":"Cube.001",
			"primitives":[
				{
					"attributes":{
						"POSITION":0,
						"NORMAL":1,
						"TEXCOORD_0":2
					},
					"indices":3,
					"material":0
				}
			]
		}
	],
	"accessors":[
		{
			"bufferView":0,
			"componentType":5126,
			"count":1442,
			"max":[
				1.5184003114700317,
				3.8151421546936035,
				4.198299407958984
			],
			"min":[
				0,
				-4.1295294761657715,
				-4.159240245819092
			],
			"type":"VEC3"
		},
		{
			"bufferView":1,
			"componentType":5126,
			"count":1442,
			"type":"VEC3"
		},
		{
			"bufferView":2,
			"componentType":5126,
			"count":1442,
			"type":"VEC2"
		},
		{
			"bufferView":3,
			"componentType":5123,
			"count":2202,
			"type":"SCALAR"
		}
	],
	"bufferViews":[
		{
			"buffer":0,
			"byteLength":17304,
			"byteOffset":0,
			"target":34962
		},
		{
			"buffer":0,
			"byteLength":17304,
			"byteOffset":17304,
			"target":34962
		},
		{
			"buffer":0,
			"byteLength":11536,
			"byteOffset":34608,
			"target":34962
		},
		{
			"buffer":0,
			"byteLength":4404,
			"byteOffset":46144,
			"target":34963
		}
	],
	"buffers":[
		{
			"byteLength":50548,
			"uri":"Deer.bin"
		}
	]
}
