{
	"asset":{
		"generator":"Khronos glTF Blender I/O v4.3.47",
		"version":"2.0"
	},
	"extensionsUsed":[
		"KHR_materials_emissive_strength"
	],
	"scene":0,
	"scenes":[
		{
			"name":"Scene",
			"nodes":[
				0,
				1,
				2,
				3,
				4,
				5,
				6
			]
		}
	],
	"nodes":[
		{
			"mesh":0,
			"name":"Cube.001",
			"rotation":[
				0,
				-0.4071035087108612,
				0,
				0.9133820533752441
			],
			"translation":[
				-0.4842715263366699,
				3.561570644378662,
				0
			]
		},
		{
			"mesh":1,
			"name":"Cube",
			"scale":[
				-5.016456127166748,
				-0.0840802788734436,
				-5.016456127166748
			],
			"translation":[
				0,
				-0.7806485891342163,
				0
			]
		},
		{
			"mesh":2,
			"name":"Cube.002",
			"rotation":[
				-0.7133907675743103,
				0,
				0,
				0.7007664442062378
			],
			"scale":[
				-5.016456127166748,
				-0.0840802788734436,
				-5.016456127166748
			],
			"translation":[
				0.028603656217455864,
				4.207486629486084,
				-5.121339321136475
			]
		},
		{
			"mesh":3,
			"name":"Cube.003",
			"rotation":[
				-0.0013257530517876148,
				0,
				0,
				1
			],
			"scale":[
				-5.016456127166748,
				-0.0840802788734436,
				-5.016456127166748
			],
			"translation":[
				0.028603656217455864,
				9.163837432861328,
				-0.03281998634338379
			]
		},
		{
			"mesh":4,
			"name":"Cube.004",
			"rotation":[
				-0.0009374963701702654,
				0.0009374961955472827,
				-0.7071061134338379,
				0.7071062922477722
			],
			"scale":[
				-5.016456127166748,
				-0.0840802788734436,
				-5.016456127166748
			],
			"translation":[
				4.984952926635742,
				4.2074875831604,
				-0.019018739461898804
			]
		},
		{
			"mesh":5,
			"name":"Cube.005",
			"rotation":[
				-0.0009374963701702654,
				0.0009374961955472827,
				-0.7071061134338379,
				0.7071062922477722
			],
			"scale":[
				-5.016456127166748,
				-0.0840802788734436,
				-5.016456127166748
			],
			"translation":[
				-4.960788726806641,
				4.108360767364502,
				-0.019018739461898804
			]
		},
		{
			"mesh":6,
			"name":"Cube.006",
			"rotation":[
				-0.0013257528189569712,
				0,
				0,
				1
			],
			"scale":[
				-1.416408658027649,
				-0.048658110201358795,
				-1.4164247512817383
			],
			"translation":[
				0.028603656217455864,
				8.536033630371094,
				-0.03281998634338379
			]
		}
	],
	"materials":[
		{
			"doubleSided":true,
			"name":"Material.004",
			"pbrMetallicRoughness":{
				"baseColorFactor":[
					1,
					0.8727789521217346,
					0.6413921117782593,
					1
				],
				"metallicFactor":0,
				"roughnessFactor":0.0
			}
		},
		{
			"doubleSided":true,
			"name":"white",
			"pbrMetallicRoughness":{
				"baseColorFactor":[
					0.800000011920929,
					0.800000011920929,
					0.800000011920929,
					1
				],
				"metallicFactor":0,
				"roughnessFactor":0.5
			}
		},
		{
			"doubleSided":true,
			"name":"Material.003",
			"pbrMetallicRoughness":{
				"baseColorFactor":[
					0.025141412392258644,
					0.8000074625015259,
					0.04177624359726906,
					1
				],
				"metallicFactor":0,
				"roughnessFactor":0.5
			}
		},
		{
			"doubleSided":true,
			"name":"Material.002",
			"pbrMetallicRoughness":{
				"baseColorFactor":[
					0.8000074625015259,
					0.04741019010543823,
					0.045756079256534576,
					1
				],
				"metallicFactor":0,
				"roughnessFactor":0.5
			}
		},
		{
			"doubleSided":true,
			"emissiveFactor":[
				1,
				1,
				1
			],
			"extensions":{
				"KHR_materials_emissive_strength":{
					"emissiveStrength":5
				}
			},
			"name":"Light",
			"pbrMetallicRoughness":{
				"baseColorFactor":[
					0.800000011920929,
					0.800000011920929,
					0.800000011920929,
					1
				],
				"metallicFactor":0,
				"roughnessFactor":0.5
			}
		}
	],
	"meshes":[
		{
			"name":"Cube.009",
			"primitives":[
				{
					"attributes":{
						"POSITION":0,
						"NORMAL":1,
						"TEXCOORD_0":2
					},
					"indices":3,
					"material":0
				}
			]
		},
		{
			"name":"Cube.002",
			"primitives":[
				{
					"attributes":{
						"POSITION":4,
						"NORMAL":5,
						"TEXCOORD_0":6
					},
					"indices":7,
					"material":1
				}
			]
		},
		{
			"name":"Cube.003",
			"primitives":[
				{
					"attributes":{
						"POSITION":8,
						"NORMAL":9,
						"TEXCOORD_0":10
					},
					"indices":7,
					"material":1
				}
			]
		},
		{
			"name":"Cube.004",
			"primitives":[
				{
					"attributes":{
						"POSITION":11,
						"NORMAL":12,
						"TEXCOORD_0":13
					},
					"indices":7,
					"material":1
				}
			]
		},
		{
			"name":"Cube.005",
			"primitives":[
				{
					"attributes":{
						"POSITION":14,
						"NORMAL":15,
						"TEXCOORD_0":16
					},
					"indices":7,
					"material":2
				}
			]
		},
		{
			"name":"Cube.006",
			"primitives":[
				{
					"attributes":{
						"POSITION":17,
						"NORMAL":18,
						"TEXCOORD_0":19
					},
					"indices":7,
					"material":3
				}
			]
		},
		{
			"name":"Cube.008",
			"primitives":[
				{
					"attributes":{
						"POSITION":20,
						"NORMAL":21,
						"TEXCOORD_0":22
					},
					"indices":7,
					"material":4
				}
			]
		}
	],
	"accessors":[
		{
			"bufferView":0,
			"componentType":5126,
			"count":1448,
			"max":[
				1.5184003114700317,
				3.8151421546936035,
				4.198299407958984
			],
			"min":[
				0,
				-4.1295294761657715,
				-4.159240245819092
			],
			"type":"VEC3"
		},
		{
			"bufferView":1,
			"componentType":5126,
			"count":1448,
			"type":"VEC3"
		},
		{
			"bufferView":2,
			"componentType":5126,
			"count":1448,
			"type":"VEC2"
		},
		{
			"bufferView":3,
			"componentType":5123,
			"count":2202,
			"type":"SCALAR"
		},
		{
			"bufferView":4,
			"componentType":5126,
			"count":24,
			"max":[
				1,
				1,
				1
			],
			"min":[
				-1,
				-1,
				-1
			],
			"type":"VEC3"
		},
		{
			"bufferView":5,
			"componentType":5126,
			"count":24,
			"type":"VEC3"
		},
		{
			"bufferView":6,
			"componentType":5126,
			"count":24,
			"type":"VEC2"
		},
		{
			"bufferView":7,
			"componentType":5123,
			"count":36,
			"type":"SCALAR"
		},
		{
			"bufferView":8,
			"componentType":5126,
			"count":24,
			"max":[
				1,
				1,
				1
			],
			"min":[
				-1,
				-1,
				-1
			],
			"type":"VEC3"
		},
		{
			"bufferView":9,
			"componentType":5126,
			"count":24,
			"type":"VEC3"
		},
		{
			"bufferView":10,
			"componentType":5126,
			"count":24,
			"type":"VEC2"
		},
		{
			"bufferView":11,
			"componentType":5126,
			"count":24,
			"max":[
				1,
				1,
				1
			],
			"min":[
				-1,
				-1,
				-1
			],
			"type":"VEC3"
		},
		{
			"bufferView":12,
			"componentType":5126,
			"count":24,
			"type":"VEC3"
		},
		{
			"bufferView":13,
			"componentType":5126,
			"count":24,
			"type":"VEC2"
		},
		{
			"bufferView":14,
			"componentType":5126,
			"count":24,
			"max":[
				1,
				1,
				1
			],
			"min":[
				-1,
				-1,
				-1
			],
			"type":"VEC3"
		},
		{
			"bufferView":15,
			"componentType":5126,
			"count":24,
			"type":"VEC3"
		},
		{
			"bufferView":16,
			"componentType":5126,
			"count":24,
			"type":"VEC2"
		},
		{
			"bufferView":17,
			"componentType":5126,
			"count":24,
			"max":[
				1,
				1,
				1
			],
			"min":[
				-1,
				-1,
				-1
			],
			"type":"VEC3"
		},
		{
			"bufferView":18,
			"componentType":5126,
			"count":24,
			"type":"VEC3"
		},
		{
			"bufferView":19,
			"componentType":5126,
			"count":24,
			"type":"VEC2"
		},
		{
			"bufferView":20,
			"componentType":5126,
			"count":24,
			"max":[
				1,
				1,
				1
			],
			"min":[
				-1,
				-1,
				-1
			],
			"type":"VEC3"
		},
		{
			"bufferView":21,
			"componentType":5126,
			"count":24,
			"type":"VEC3"
		},
		{
			"bufferView":22,
			"componentType":5126,
			"count":24,
			"type":"VEC2"
		}
	],
	"bufferViews":[
		{
			"buffer":0,
			"byteLength":17376,
			"byteOffset":0,
			"target":34962
		},
		{
			"buffer":0,
			"byteLength":17376,
			"byteOffset":17376,
			"target":34962
		},
		{
			"buffer":0,
			"byteLength":11584,
			"byteOffset":34752,
			"target":34962
		},
		{
			"buffer":0,
			"byteLength":4404,
			"byteOffset":46336,
			"target":34963
		},
		{
			"buffer":0,
			"byteLength":288,
			"byteOffset":50740,
			"target":34962
		},
		{
			"buffer":0,
			"byteLength":288,
			"byteOffset":51028,
			"target":34962
		},
		{
			"buffer":0,
			"byteLength":192,
			"byteOffset":51316,
			"target":34962
		},
		{
			"buffer":0,
			"byteLength":72,
			"byteOffset":51508,
			"target":34963
		},
		{
			"buffer":0,
			"byteLength":288,
			"byteOffset":51580,
			"target":34962
		},
		{
			"buffer":0,
			"byteLength":288,
			"byteOffset":51868,
			"target":34962
		},
		{
			"buffer":0,
			"byteLength":192,
			"byteOffset":52156,
			"target":34962
		},
		{
			"buffer":0,
			"byteLength":288,
			"byteOffset":52348,
			"target":34962
		},
		{
			"buffer":0,
			"byteLength":288,
			"byteOffset":52636,
			"target":34962
		},
		{
			"buffer":0,
			"byteLength":192,
			"byteOffset":52924,
			"target":34962
		},
		{
			"buffer":0,
			"byteLength":288,
			"byteOffset":53116,
			"target":34962
		},
		{
			"buffer":0,
			"byteLength":288,
			"byteOffset":53404,
			"target":34962
		},
		{
			"buffer":0,
			"byteLength":192,
			"byteOffset":53692,
			"target":34962
		},
		{
			"buffer":0,
			"byteLength":288,
			"byteOffset":53884,
			"target":34962
		},
		{
			"buffer":0,
			"byteLength":288,
			"byteOffset":54172,
			"target":34962
		},
		{
			"buffer":0,
			"byteLength":192,
			"byteOffset":54460,
			"target":34962
		},
		{
			"buffer":0,
			"byteLength":288,
			"byteOffset":54652,
			"target":34962
		},
		{
			"buffer":0,
			"byteLength":288,
			"byteOffset":54940,
			"target":34962
		},
		{
			"buffer":0,
			"byteLength":192,
			"byteOffset":55228,
			"target":34962
		}
	],
	"buffers":[
		{
			"byteLength":55420,
			"uri":"DeerBox.bin"
		}
	]
}
