{
	"asset":{
		"generator":"Khronos glTF Blender I/O v4.3.47",
		"version":"2.0"
	},
	"extensionsUsed":[
		"KHR_materials_transmission",
		"KHR_materials_emissive_strength"
	],
	"scene":0,
	"scenes":[
		{
			"name":"Scene",
			"nodes":[
				0,
				1,
				2,
				3,
				4,
				5,
				6,
				7,
				8,
				9,
				10,
				11,
				12,
				13
			]
		}
	],
	"nodes":[
		{
			"mesh":0,
			"name":"Cube",
			"scale":[
				5.016456127166748,
				0.0840802788734436,
				5.016456127166748
			],
			"translation":[
				0,
				-0.7806485891342163,
				0
			]
		},
		{
			"mesh":1,
			"name":"Cube.002",
			"rotation":[
				-0.7133907675743103,
				0,
				0,
				0.7007664442062378
			],
			"scale":[
				5.016456127166748,
				0.0840802788734436,
				5.016456127166748
			],
			"translation":[
				0.028603656217455864,
				4.207486629486084,
				-5.121339321136475
			]
		},
		{
			"mesh":2,
			"name":"Cube.003",
			"rotation":[
				-0.0013257521204650402,
				0,
				0,
				1
			],
			"scale":[
				5.016456127166748,
				0.0840802788734436,
				5.016456127166748
			],
			"translation":[
				0.028603656217455864,
				9.163837432861328,
				-0.03281998634338379
			]
		},
		{
			"mesh":3,
			"name":"Cube.004",
			"rotation":[
				-0.0009374963701702654,
				0.0009374963701702654,
				-0.7071061134338379,
				0.7071062922477722
			],
			"scale":[
				5.016456604003906,
				0.0840802937746048,
				5.016456127166748
			],
			"translation":[
				4.984952926635742,
				4.2074875831604,
				-0.019018739461898804
			]
		},
		{
			"mesh":4,
			"name":"Cube.005",
			"rotation":[
				-0.0009374963701702654,
				0.0009374963701702654,
				-0.7071061134338379,
				0.7071062922477722
			],
			"scale":[
				5.016456604003906,
				0.0840802937746048,
				5.016456127166748
			],
			"translation":[
				-4.960788726806641,
				4.108360767364502,
				-0.019018739461898804
			]
		},
		{
			"mesh":5,
			"name":"Cube.006",
			"rotation":[
				-0.0013257518876343966,
				0,
				0,
				1
			],
			"scale":[
				1.416408658027649,
				0.048658110201358795,
				1.4164247512817383
			],
			"translation":[
				0.028603656217455864,
				8.536033630371094,
				-0.03281998634338379
			]
		},
		{
			"mesh":6,
			"name":"Sphere",
			"translation":[
				-3.408644199371338,
				6.847513675689697,
				0.17754028737545013
			]
		},
		{
			"mesh":7,
			"name":"Sphere.001",
			"scale":[
				1.4147242307662964,
				1.4147242307662964,
				1.4147242307662964
			],
			"translation":[
				2.2543392181396484,
				6.6630682945251465,
				-0.16305242478847504
			]
		},
		{
			"mesh":8,
			"name":"Sphere.002",
			"scale":[
				1.0979204177856445,
				1.0979204177856445,
				1.0979204177856445
			],
			"translation":[
				-0.38116827607154846,
				5.043783187866211,
				-1.2059701681137085
			]
		},
		{
			"mesh":9,
			"name":"Sphere.003",
			"scale":[
				1.0979204177856445,
				1.0979204177856445,
				1.0979204177856445
			],
			"translation":[
				2.9900271892547607,
				4.031993865966797,
				1.4171392917633057
			]
		},
		{
			"mesh":10,
			"name":"Sphere.004",
			"scale":[
				1.7495914697647095,
				1.7495914697647095,
				1.7495914697647095
			],
			"translation":[
				-2.547797679901123,
				2.7764699459075928,
				0.9431107044219971
			]
		},
		{
			"mesh":11,
			"name":"Sphere.005",
			"scale":[
				1.4110392332077026,
				1.4110392332077026,
				1.4110392332077026
			],
			"translation":[
				1.3404887914657593,
				2.9030284881591797,
				-1.7748022079467773
			]
		},
		{
			"mesh":12,
			"name":"Sphere.006",
			"scale":[
				0.807485044002533,
				0.807485044002533,
				0.807485044002533
			],
			"translation":[
				0.35859593749046326,
				1.083123803138733,
				0.8523778319358826
			]
		},
		{
			"mesh":13,
			"name":"Sphere.007",
			"scale":[
				0.5684031844139099,
				0.5684031844139099,
				0.5684031844139099
			],
			"translation":[
				-0.6731787323951721,
				7.608190536499023,
				-0.15216784179210663
			]
		}
	],
	"materials":[
		{
			"doubleSided":true,
			"name":"white",
			"pbrMetallicRoughness":{
				"baseColorFactor":[
					0.800000011920929,
					0.800000011920929,
					0.800000011920929,
					1
				],
				"metallicFactor":0,
				"roughnessFactor":0.5
			}
		},
		{
			"doubleSided":true,
			"name":"Material.003",
			"pbrMetallicRoughness":{
				"baseColorFactor":[
					0.025141412392258644,
					0.8000074625015259,
					0.04177624359726906,
					1
				],
				"metallicFactor":0,
				"roughnessFactor":0.5
			}
		},
		{
			"doubleSided":true,
			"name":"Material.002",
			"pbrMetallicRoughness":{
				"baseColorFactor":[
					0.8000074625015259,
					0.04741019010543823,
					0.045756079256534576,
					1
				],
				"metallicFactor":0,
				"roughnessFactor":0.5
			}
		},
		{
			"doubleSided":true,
			"emissiveFactor":[
				1,
				1,
				1
			],
			"extensions":{
				"KHR_materials_emissive_strength":{
					"emissiveStrength":5
				}
			},
			"name":"Light",
			"pbrMetallicRoughness":{
				"metallicFactor":0,
				"roughnessFactor":0.5
			}
		},
		{
			"doubleSided":true,
			"extensions":{
				"KHR_materials_transmission":{
					"transmissionFactor":0.8899082541465759
				}
			},
			"name":"Material.004",
			"pbrMetallicRoughness":{
				"baseColorFactor":[
					0.800000011920929,
					0.800000011920929,
					0.800000011920929,
					1
				],
				"metallicFactor":0,
				"roughnessFactor":0.5
			}
		}
	],
	"meshes":[
		{
			"name":"Cube.002",
			"primitives":[
				{
					"attributes":{
						"POSITION":0,
						"NORMAL":1,
						"TEXCOORD_0":2
					},
					"indices":3,
					"material":0
				}
			]
		},
		{
			"name":"Cube.003",
			"primitives":[
				{
					"attributes":{
						"POSITION":4,
						"NORMAL":5,
						"TEXCOORD_0":6
					},
					"indices":3,
					"material":0
				}
			]
		},
		{
			"name":"Cube.004",
			"primitives":[
				{
					"attributes":{
						"POSITION":7,
						"NORMAL":8,
						"TEXCOORD_0":9
					},
					"indices":3,
					"material":0
				}
			]
		},
		{
			"name":"Cube.005",
			"primitives":[
				{
					"attributes":{
						"POSITION":10,
						"NORMAL":11,
						"TEXCOORD_0":12
					},
					"indices":3,
					"material":1
				}
			]
		},
		{
			"name":"Cube.006",
			"primitives":[
				{
					"attributes":{
						"POSITION":13,
						"NORMAL":14,
						"TEXCOORD_0":15
					},
					"indices":3,
					"material":2
				}
			]
		},
		{
			"name":"Cube.008",
			"primitives":[
				{
					"attributes":{
						"POSITION":16,
						"NORMAL":17,
						"TEXCOORD_0":18
					},
					"indices":3,
					"material":3
				}
			]
		},
		{
			"name":"Sphere",
			"primitives":[
				{
					"attributes":{
						"POSITION":19,
						"NORMAL":20,
						"TEXCOORD_0":21
					},
					"indices":22,
					"material":4
				}
			]
		},
		{
			"name":"Sphere.001",
			"primitives":[
				{
					"attributes":{
						"POSITION":23,
						"NORMAL":24,
						"TEXCOORD_0":25
					},
					"indices":22,
					"material":4
				}
			]
		},
		{
			"name":"Sphere.002",
			"primitives":[
				{
					"attributes":{
						"POSITION":26,
						"NORMAL":27,
						"TEXCOORD_0":28
					},
					"indices":22,
					"material":4
				}
			]
		},
		{
			"name":"Sphere.003",
			"primitives":[
				{
					"attributes":{
						"POSITION":29,
						"NORMAL":30,
						"TEXCOORD_0":31
					},
					"indices":22,
					"material":4
				}
			]
		},
		{
			"name":"Sphere.004",
			"primitives":[
				{
					"attributes":{
						"POSITION":32,
						"NORMAL":33,
						"TEXCOORD_0":34
					},
					"indices":22,
					"material":4
				}
			]
		},
		{
			"name":"Sphere.005",
			"primitives":[
				{
					"attributes":{
						"POSITION":35,
						"NORMAL":36,
						"TEXCOORD_0":37
					},
					"indices":22,
					"material":4
				}
			]
		},
		{
			"name":"Sphere.006",
			"primitives":[
				{
					"attributes":{
						"POSITION":38,
						"NORMAL":39,
						"TEXCOORD_0":40
					},
					"indices":22,
					"material":4
				}
			]
		},
		{
			"name":"Sphere.007",
			"primitives":[
				{
					"attributes":{
						"POSITION":41,
						"NORMAL":42,
						"TEXCOORD_0":43
					},
					"indices":22,
					"material":4
				}
			]
		}
	],
	"accessors":[
		{
			"bufferView":0,
			"componentType":5126,
			"count":24,
			"max":[
				1,
				1,
				1
			],
			"min":[
				-1,
				-1,
				-1
			],
			"type":"VEC3"
		},
		{
			"bufferView":1,
			"componentType":5126,
			"count":24,
			"type":"VEC3"
		},
		{
			"bufferView":2,
			"componentType":5126,
			"count":24,
			"type":"VEC2"
		},
		{
			"bufferView":3,
			"componentType":5123,
			"count":36,
			"type":"SCALAR"
		},
		{
			"bufferView":4,
			"componentType":5126,
			"count":24,
			"max":[
				1,
				1,
				1
			],
			"min":[
				-1,
				-1,
				-1
			],
			"type":"VEC3"
		},
		{
			"bufferView":5,
			"componentType":5126,
			"count":24,
			"type":"VEC3"
		},
		{
			"bufferView":6,
			"componentType":5126,
			"count":24,
			"type":"VEC2"
		},
		{
			"bufferView":7,
			"componentType":5126,
			"count":24,
			"max":[
				1,
				1,
				1
			],
			"min":[
				-1,
				-1,
				-1
			],
			"type":"VEC3"
		},
		{
			"bufferView":8,
			"componentType":5126,
			"count":24,
			"type":"VEC3"
		},
		{
			"bufferView":9,
			"componentType":5126,
			"count":24,
			"type":"VEC2"
		},
		{
			"bufferView":10,
			"componentType":5126,
			"count":24,
			"max":[
				1,
				1,
				1
			],
			"min":[
				-1,
				-1,
				-1
			],
			"type":"VEC3"
		},
		{
			"bufferView":11,
			"componentType":5126,
			"count":24,
			"type":"VEC3"
		},
		{
			"bufferView":12,
			"componentType":5126,
			"count":24,
			"type":"VEC2"
		},
		{
			"bufferView":13,
			"componentType":5126,
			"count":24,
			"max":[
				1,
				1,
				1
			],
			"min":[
				-1,
				-1,
				-1
			],
			"type":"VEC3"
		},
		{
			"bufferView":14,
			"componentType":5126,
			"count":24,
			"type":"VEC3"
		},
		{
			"bufferView":15,
			"componentType":5126,
			"count":24,
			"type":"VEC2"
		},
		{
			"bufferView":16,
			"componentType":5126,
			"count":24,
			"max":[
				1,
				1,
				1
			],
			"min":[
				-1,
				-1,
				-1
			],
			"type":"VEC3"
		},
		{
			"bufferView":17,
			"componentType":5126,
			"count":24,
			"type":"VEC3"
		},
		{
			"bufferView":18,
			"componentType":5126,
			"count":24,
			"type":"VEC2"
		},
		{
			"bufferView":19,
			"componentType":5126,
			"count":559,
			"max":[
				0.9999997019767761,
				1,
				0.9999993443489075
			],
			"min":[
				-0.9999990463256836,
				-1,
				-1
			],
			"type":"VEC3"
		},
		{
			"bufferView":20,
			"componentType":5126,
			"count":559,
			"type":"VEC3"
		},
		{
			"bufferView":21,
			"componentType":5126,
			"count":559,
			"type":"VEC2"
		},
		{
			"bufferView":22,
			"componentType":5123,
			"count":2880,
			"type":"SCALAR"
		},
		{
			"bufferView":23,
			"componentType":5126,
			"count":559,
			"max":[
				0.9999997019767761,
				1,
				0.9999993443489075
			],
			"min":[
				-0.9999990463256836,
				-1,
				-1
			],
			"type":"VEC3"
		},
		{
			"bufferView":24,
			"componentType":5126,
			"count":559,
			"type":"VEC3"
		},
		{
			"bufferView":25,
			"componentType":5126,
			"count":559,
			"type":"VEC2"
		},
		{
			"bufferView":26,
			"componentType":5126,
			"count":559,
			"max":[
				0.9999997019767761,
				1,
				0.9999993443489075
			],
			"min":[
				-0.9999990463256836,
				-1,
				-1
			],
			"type":"VEC3"
		},
		{
			"bufferView":27,
			"componentType":5126,
			"count":559,
			"type":"VEC3"
		},
		{
			"bufferView":28,
			"componentType":5126,
			"count":559,
			"type":"VEC2"
		},
		{
			"bufferView":29,
			"componentType":5126,
			"count":559,
			"max":[
				0.9999997019767761,
				1,
				0.9999993443489075
			],
			"min":[
				-0.9999990463256836,
				-1,
				-1
			],
			"type":"VEC3"
		},
		{
			"bufferView":30,
			"componentType":5126,
			"count":559,
			"type":"VEC3"
		},
		{
			"bufferView":31,
			"componentType":5126,
			"count":559,
			"type":"VEC2"
		},
		{
			"bufferView":32,
			"componentType":5126,
			"count":559,
			"max":[
				0.9999997019767761,
				1,
				0.9999993443489075
			],
			"min":[
				-0.9999990463256836,
				-1,
				-1
			],
			"type":"VEC3"
		},
		{
			"bufferView":33,
			"componentType":5126,
			"count":559,
			"type":"VEC3"
		},
		{
			"bufferView":34,
			"componentType":5126,
			"count":559,
			"type":"VEC2"
		},
		{
			"bufferView":35,
			"componentType":5126,
			"count":559,
			"max":[
				0.9999997019767761,
				1,
				0.9999993443489075
			],
			"min":[
				-0.9999990463256836,
				-1,
				-1
			],
			"type":"VEC3"
		},
		{
			"bufferView":36,
			"componentType":5126,
			"count":559,
			"type":"VEC3"
		},
		{
			"bufferView":37,
			"componentType":5126,
			"count":559,
			"type":"VEC2"
		},
		{
			"bufferView":38,
			"componentType":5126,
			"count":559,
			"max":[
				0.9999997019767761,
				1,
				0.9999993443489075
			],
			"min":[
				-0.9999990463256836,
				-1,
				-1
			],
			"type":"VEC3"
		},
		{
			"bufferView":39,
			"componentType":5126,
			"count":559,
			"type":"VEC3"
		},
		{
			"bufferView":40,
			"componentType":5126,
			"count":559,
			"type":"VEC2"
		},
		{
			"bufferView":41,
			"componentType":5126,
			"count":559,
			"max":[
				0.9999997019767761,
				1,
				0.9999993443489075
			],
			"min":[
				-0.9999990463256836,
				-1,
				-1
			],
			"type":"VEC3"
		},
		{
			"bufferView":42,
			"componentType":5126,
			"count":559,
			"type":"VEC3"
		},
		{
			"bufferView":43,
			"componentType":5126,
			"count":559,
			"type":"VEC2"
		}
	],
	"bufferViews":[
		{
			"buffer":0,
			"byteLength":288,
			"byteOffset":0,
			"target":34962
		},
		{
			"buffer":0,
			"byteLength":288,
			"byteOffset":288,
			"target":34962
		},
		{
			"buffer":0,
			"byteLength":192,
			"byteOffset":576,
			"target":34962
		},
		{
			"buffer":0,
			"byteLength":72,
			"byteOffset":768,
			"target":34963
		},
		{
			"buffer":0,
			"byteLength":288,
			"byteOffset":840,
			"target":34962
		},
		{
			"buffer":0,
			"byteLength":288,
			"byteOffset":1128,
			"target":34962
		},
		{
			"buffer":0,
			"byteLength":192,
			"byteOffset":1416,
			"target":34962
		},
		{
			"buffer":0,
			"byteLength":288,
			"byteOffset":1608,
			"target":34962
		},
		{
			"buffer":0,
			"byteLength":288,
			"byteOffset":1896,
			"target":34962
		},
		{
			"buffer":0,
			"byteLength":192,
			"byteOffset":2184,
			"target":34962
		},
		{
			"buffer":0,
			"byteLength":288,
			"byteOffset":2376,
			"target":34962
		},
		{
			"buffer":0,
			"byteLength":288,
			"byteOffset":2664,
			"target":34962
		},
		{
			"buffer":0,
			"byteLength":192,
			"byteOffset":2952,
			"target":34962
		},
		{
			"buffer":0,
			"byteLength":288,
			"byteOffset":3144,
			"target":34962
		},
		{
			"buffer":0,
			"byteLength":288,
			"byteOffset":3432,
			"target":34962
		},
		{
			"buffer":0,
			"byteLength":192,
			"byteOffset":3720,
			"target":34962
		},
		{
			"buffer":0,
			"byteLength":288,
			"byteOffset":3912,
			"target":34962
		},
		{
			"buffer":0,
			"byteLength":288,
			"byteOffset":4200,
			"target":34962
		},
		{
			"buffer":0,
			"byteLength":192,
			"byteOffset":4488,
			"target":34962
		},
		{
			"buffer":0,
			"byteLength":6708,
			"byteOffset":4680,
			"target":34962
		},
		{
			"buffer":0,
			"byteLength":6708,
			"byteOffset":11388,
			"target":34962
		},
		{
			"buffer":0,
			"byteLength":4472,
			"byteOffset":18096,
			"target":34962
		},
		{
			"buffer":0,
			"byteLength":5760,
			"byteOffset":22568,
			"target":34963
		},
		{
			"buffer":0,
			"byteLength":6708,
			"byteOffset":28328,
			"target":34962
		},
		{
			"buffer":0,
			"byteLength":6708,
			"byteOffset":35036,
			"target":34962
		},
		{
			"buffer":0,
			"byteLength":4472,
			"byteOffset":41744,
			"target":34962
		},
		{
			"buffer":0,
			"byteLength":6708,
			"byteOffset":46216,
			"target":34962
		},
		{
			"buffer":0,
			"byteLength":6708,
			"byteOffset":52924,
			"target":34962
		},
		{
			"buffer":0,
			"byteLength":4472,
			"byteOffset":59632,
			"target":34962
		},
		{
			"buffer":0,
			"byteLength":6708,
			"byteOffset":64104,
			"target":34962
		},
		{
			"buffer":0,
			"byteLength":6708,
			"byteOffset":70812,
			"target":34962
		},
		{
			"buffer":0,
			"byteLength":4472,
			"byteOffset":77520,
			"target":34962
		},
		{
			"buffer":0,
			"byteLength":6708,
			"byteOffset":81992,
			"target":34962
		},
		{
			"buffer":0,
			"byteLength":6708,
			"byteOffset":88700,
			"target":34962
		},
		{
			"buffer":0,
			"byteLength":4472,
			"byteOffset":95408,
			"target":34962
		},
		{
			"buffer":0,
			"byteLength":6708,
			"byteOffset":99880,
			"target":34962
		},
		{
			"buffer":0,
			"byteLength":6708,
			"byteOffset":106588,
			"target":34962
		},
		{
			"buffer":0,
			"byteLength":4472,
			"byteOffset":113296,
			"target":34962
		},
		{
			"buffer":0,
			"byteLength":6708,
			"byteOffset":117768,
			"target":34962
		},
		{
			"buffer":0,
			"byteLength":6708,
			"byteOffset":124476,
			"target":34962
		},
		{
			"buffer":0,
			"byteLength":4472,
			"byteOffset":131184,
			"target":34962
		},
		{
			"buffer":0,
			"byteLength":6708,
			"byteOffset":135656,
			"target":34962
		},
		{
			"buffer":0,
			"byteLength":6708,
			"byteOffset":142364,
			"target":34962
		},
		{
			"buffer":0,
			"byteLength":4472,
			"byteOffset":149072,
			"target":34962
		}
	],
	"buffers":[
		{
			"byteLength":153544,
			"uri":"glassSpheres.bin"
		}
	]
}
