{
	"asset":{
		"generator":"Khronos glTF Blender I/O v4.3.47",
		"version":"2.0"
	},
	"extensionsUsed":[
		"KHR_materials_emissive_strength",
		"KHR_materials_specular",
		"KHR_materials_ior"
	],
	"scene":0,
	"scenes":[
		{
			"name":"Scene",
			"nodes":[
				0,
				1
			]
		}
	],
	"nodes":[
		{
			"mesh":0,
			"name":"Cube.006",
			"rotation":[
				-0.0013257518876343966,
				0,
				0,
				1
			],
			"scale":[
				-1.416408658027649,
				-0.048658110201358795,
				-1.4164247512817383
			],
			"translation":[
				0.028603656217455864,
				8.536033630371094,
				-0.03281998634338379
			]
		},
		{
			"mesh":1,
			"name":"Body",
			"scale":[
				0.6576688885688782,
				0.6576688885688782,
				0.6576688885688782
			],
			"translation":[
				0,
				0.21810585260391235,
				0
			]
		}
	],
	"materials":[
		{
			"doubleSided":true,
			"emissiveFactor":[
				1,
				1,
				1
			],
			"extensions":{
				"KHR_materials_emissive_strength":{
					"emissiveStrength":5
				}
			},
			"name":"Light",
			"pbrMetallicRoughness":{
				"baseColorFactor":[
					0.800000011920929,
					0.800000011920929,
					0.800000011920929,
					1
				],
				"metallicFactor":0,
				"roughnessFactor":0.5
			}
		},
		{
			"doubleSided":true,
			"extensions":{
				"KHR_materials_specular":{
					"specularColorFactor":[
						1.0370370149612427,
						1.0370370149612427,
						1.0370370149612427
					]
				},
				"KHR_materials_ior":{
					"ior":1.4500000476837158
				}
			},
			"name":"Body",
			"normalTexture":{
				"index":0
			},
			"pbrMetallicRoughness":{
				"baseColorTexture":{
					"index":1
				},
				"metallicRoughnessTexture":{
					"index":2
				},
				"roughnessFactor":0.7541899681091309
			}
		}
	],
	"meshes":[
		{
			"name":"Cube.008",
			"primitives":[
				{
					"attributes":{
						"POSITION":0,
						"NORMAL":1,
						"TEXCOORD_0":2
					},
					"indices":3,
					"material":0
				}
			]
		},
		{
			"name":"Cube.010",
			"primitives":[
				{
					"attributes":{
						"POSITION":4,
						"NORMAL":5,
						"TEXCOORD_0":6,
						"COLOR_0":7,
						"COLOR_1":8
					},
					"indices":9,
					"material":1
				}
			]
		}
	],
	"textures":[
		{
			"sampler":0,
			"source":0
		},
		{
			"sampler":0,
			"source":1
		},
		{
			"sampler":0,
			"source":2
		}
	],
	"images":[
		{
			"mimeType":"image/png",
			"name":"2021-06-12a_Material_003_normal",
			"uri":"2021-06-12a_Material_003_normal.png"
		},
		{
			"mimeType":"image/png",
			"name":"SkaylCombined",
			"uri":"SkaylCombined.png"
		},
		{
			"mimeType":"image/png",
			"name":"SkaylMetallic",
			"uri":"SkaylMetallic.png"
		}
	],
	"accessors":[
		{
			"bufferView":0,
			"componentType":5126,
			"count":24,
			"max":[
				1,
				1,
				1
			],
			"min":[
				-1,
				-1,
				-1
			],
			"type":"VEC3"
		},
		{
			"bufferView":1,
			"componentType":5126,
			"count":24,
			"type":"VEC3"
		},
		{
			"bufferView":2,
			"componentType":5126,
			"count":24,
			"type":"VEC2"
		},
		{
			"bufferView":3,
			"componentType":5123,
			"count":36,
			"type":"SCALAR"
		},
		{
			"bufferView":4,
			"componentType":5126,
			"count":5682,
			"max":[
				2.887117385864258,
				11.484850883483887,
				2.9781713485717773
			],
			"min":[
				-2.155430793762207,
				-1.219545602798462,
				-3.1698100566864014
			],
			"type":"VEC3"
		},
		{
			"bufferView":5,
			"componentType":5126,
			"count":5682,
			"type":"VEC3"
		},
		{
			"bufferView":6,
			"componentType":5126,
			"count":5682,
			"type":"VEC2"
		},
		{
			"bufferView":7,
			"componentType":5126,
			"count":5682,
			"type":"VEC3"
		},
		{
			"bufferView":8,
			"componentType":5123,
			"count":5682,
			"normalized":true,
			"type":"VEC4"
		},
		{
			"bufferView":9,
			"componentType":5123,
			"count":27438,
			"type":"SCALAR"
		}
	],
	"bufferViews":[
		{
			"buffer":0,
			"byteLength":288,
			"byteOffset":0,
			"target":34962
		},
		{
			"buffer":0,
			"byteLength":288,
			"byteOffset":288,
			"target":34962
		},
		{
			"buffer":0,
			"byteLength":192,
			"byteOffset":576,
			"target":34962
		},
		{
			"buffer":0,
			"byteLength":72,
			"byteOffset":768,
			"target":34963
		},
		{
			"buffer":0,
			"byteLength":68184,
			"byteOffset":840,
			"target":34962
		},
		{
			"buffer":0,
			"byteLength":68184,
			"byteOffset":69024,
			"target":34962
		},
		{
			"buffer":0,
			"byteLength":45456,
			"byteOffset":137208,
			"target":34962
		},
		{
			"buffer":0,
			"byteLength":68184,
			"byteOffset":182664,
			"target":34962
		},
		{
			"buffer":0,
			"byteLength":45456,
			"byteOffset":250848,
			"target":34962
		},
		{
			"buffer":0,
			"byteLength":54876,
			"byteOffset":296304,
			"target":34963
		}
	],
	"samplers":[
		{
			"magFilter":9729,
			"minFilter":9987
		}
	],
	"buffers":[
		{
			"byteLength":351180,
			"uri":"SkaylBoxless.bin"
		}
	]
}
